<?xml version="1.0" encoding="utf-8"?>
<svg version="1.1" id="Ebene_1" xmlns="http://www.w3.org/2000/svg" x="0px" y="0px"
	 viewBox="0 0 566.9 201.3" style="enable-background:new 0 0 566.9 201.3;" xml:space="preserve">
<style type="text/css">
	.st0{fill:#FEFEFE;}
	.st1{fill:#E30613;}
</style>
<g>
	<path d="M463.5,46.6c-2-0.2-0.9-1.9-1.2-2.8c-0.3-1.2,0.5-2.8-1.2-3.9c-1.4,5.3-0.8,10.3,0.2,15.4c1-2.9,2.5-5.7,2.1-8.8
		c1.6-0.8,3.5-6.4,2.5-8.2c-0.8-1.4-0.9-2.7-0.9-4.2c0-1,0.2-2.1-0.9-3C461.8,36.4,463.6,41.6,463.5,46.6z"/>
	<path d="M460.4,17.6c-3,2.2-3.9,5.4-4.3,8.9c3.3-4,6.9-7.6,8.9-12.5c0.8-0.1,1.3,0.1,0.9,1c-2.2,4.6-4.9,9.1-8.8,12.2
		c-2.9,2.3-2.6,5.3-3.8,8c3.1-3,5.7-6.4,8-10.1c0.6,0.7,0.5,1.3,0.3,1.8c-1.8,3.5-4.1,6.8-7.1,9.1c-3.1,2.3-2.9,5.4-4,8.3
		c3.8-3.7,6.7-8.1,9.8-12.2c-1.8,5.2-4.8,9.7-8.8,13c-2.8,2.3-2.6,5.1-4.1,7.6c0.3,0.2,0.6,0.4,0.9,0.5c2.4-3.2,4.9-6.3,7.3-9.5
		c0.2,0.2,0.5,0.3,0.7,0.5c-1.9,3.7-4.4,7.3-7.7,9.8c-2.9,2.3-2.5,5.3-3.6,8c3.3-3.5,6.2-7.1,8.4-11.2c0.7,0.3,0.8,0.8,0.7,1.1
		c-1.9,4.2-4.5,8.1-8.1,10.9c-2.9,2.3-2.7,5.3-3.7,8c3.4-3.4,6.3-7.2,9-11.2c-1,4.9-4.2,8.8-7.7,11.8c-2.9,2.4-2.9,5.4-4.1,8.2
		c3.3-2.6,5.4-6.3,8.3-9.8c0.1,2.2-1.1,3.3-1.9,4.5c-0.5,0.7-1,1.9-0.4,2.1c2.1,0.4,0.9,1.3,0.5,2c-1.9,4.2-4.6,8-8,10.7
		c-2.9,2.4-2.9,5.4-4.4,8c0.3,0.2,0.6,0.4,0.9,0.6c2.7-3.7,5.4-7.3,8.3-11.3c0,2.6-1.3,4.1-2.6,5.5c-0.7,0.8-0.9,2.1-0.5,2.1
		c3.4,0.5,0.6,2.2,0.3,2.8c-0.7,1.8-1.7,3.7-3.1,5c-1.5,1.4-1.9,3.8-4.3,4.2c0.9-2.5,2.9-4.3,4.4-6.4c0.8-1.2,1.7-2.4,2.1-3.8
		c0.1-0.4,0.3-0.8-0.2-1.1c-0.4-0.2-0.9-0.2-1.1,0.2c-1.9,3.5-6.3,5.3-6.6,9.9c0,0.5-0.8,1.2,0.1,1.5c0.4,0.1,0.9-0.3,1.4-0.4
		c0.6,1.5-0.7,1.5-1.5,2c-1.5,0.9-1.6,2.6-1.9,4c0,0.2,0.3,0.7,0.5,0.7c1.6,0,2.3-1.2,3.1-2.3c1.2-1.7,2.7-3.2,3.8-5
		c0.1,2.5-1.9,3.9-2.4,6c-0.4,0.2-1.2,0.5-0.9,0.9c0.5,0.7,1,0.1,1.3-0.5c1-0.4,2.4,2.1,2.8,0.3c0.5-2.4,3.5-3.2,3.1-5.9
		c0.4,1.8,0.6,3.5,0.7,5.2c0.1,1.3,1.1,1.9,1.9,1.2c2-1.8,4-1,6-0.3c1.4,0.5,2.5-0.2,2.2-1.2c-0.5-1.9,0.8-3,1.2-4.5
		c0.9-2.9-2.1-2.6-3.3-3.5c-1.5-1.1-1.5,0.8-1.8,1.7c-0.6,1.7-1.1,3.4-1.3,5.1c-0.1,0.7,0.6,1.6-0.5,2.1c-0.4,0.2-1.2,0.3-1.2-0.4
		c0-0.9-0.8-1.6-0.2-2.6c1.9-3,4.1-6,1.7-9.9c-0.5-0.8-0.1-2.1-0.2-3.1c-0.1-1,0.3-2.1-1.2-2.6c-1.5,4.6-0.4,9.4-1.1,14.5
		c-1.2-2,0.3-4.3-1.3-5.7c-1.5,0.3-0.2,2.2-1.5,2.4c-1.1-2.4,1.7-3.5,1.9-4.9c0.5-3.3,0.9-6.6,2.3-9.7c0.9-2,0.4-5.3,1.5-6.1
		c3.1-2.3,2-5.2,2.4-7.9c0.1-0.5,0.2-1.4,0.4-1.5c2.9-0.5,1.9-2.8,2-4.4c0.3-2.3-0.9-5,2.3-6.3c0.2-0.1,0.2-0.6,0.3-0.9
		c0.9-2.6-0.2-5.4,2.7-7.9c1.9-1.7,0.1-5.6,2.3-8.6c1.7-2.4,0.2-7.1,3.9-9.3c0.3-0.2,0.4-0.8,0.3-1.2c-0.8-2.8,0.1-4.8,1.4-7.5
		c1.6-3.2,1.6-7.4,3.2-11c1-2.2-0.3-5.3,2.6-6.9c0.4-0.2,0.6-1.1,0.8-1.6c0.4-0.9-0.3-1.6-0.9-2c-0.7-0.5-1.8-0.3-2.2,0.6
		c-0.8,2.1-2.8,3.6-3.4,5.9c-0.8,0.5-1.5,1-2.3,1.6c-1.1-0.8,0-1.2,0.3-1.7c1.1-1.6,2.3-3.2,3.5-4.8c0.3-0.4,0.8-0.8,0.3-1.3
		c-0.5-0.5-1.2-0.3-1.7,0.2c-2.3,2.4-4.9,4.4-5.8,8C458.3,17.7,459.2,17.5,460.4,17.6z"/>
	<path d="M457.8,64.1c1.2,1,1.2-1,2.4-0.8c-1.7,3.3,1.1,3.8,2.9,4.8c0.9,0.5,1.4-0.1,1.7-0.7c1.9-3.2-2.6-2.7-2.9-4.6
		c0.5-0.4,0.8,0.1,1.2,0.2c1,0,1.8,2.4,3,0.3c1.1-1.9,0.2-2.9-1.5-3.5c-1.2-0.5-2.8-0.8-3.3-1.6c-1.2-2.1-2.3-4.4-1.8-7.1
		c0.1-0.6,0.1-1.5-1.2-1.6C456.9,54.3,457.9,59.3,457.8,64.1c-1.8-0.3-0.8-1.8-1-2.8c-0.3-1.2,0.6-2.7-1.2-3.6
		c-1.3,5.3-1,10.4,0.4,15.5C456.7,70.2,458.5,67.4,457.8,64.1z"/>
	<path d="M469.3,29.1c1.5,0.9,2.6,2.4,4.2,3.2c1.9,0.9,2.3,0.2,2.8-1.4c0.8-2.6,0.7-5.5,2.2-8.1c0.8-1.4,0.9-3.5,1.8-5.2
		c0.5-0.9-3.2-4-4.3-3.7c-0.2,0.1-0.5,0.4-0.6,0.6c-0.3,2.6-2.2,5-1.5,7.8c-0.2,0.1-0.3,0.2-0.4,0.4c-2,0.7-0.4,3.7-3.6,4.6
		c3.2-5.1,0.2-9.3-0.3-13.8C467.9,18.7,468.5,23.9,469.3,29.1c-1.8-0.1-1.2-1.6-1.4-2.7c-0.2-1.4,0.6-3.1-1.1-4.5
		c-1.4,5.4-1,10.6-0.1,15.8C468.1,34.9,468.9,32,469.3,29.1z"/>
	<path class="st0" d="M35.7,61.5c7.3-2.6,14.5-5.1,21.6-7.7c21.7-8,43.7-14.7,66.6-18.4c3.8-0.6,7.5-0.9,11.3-0.1
		c5.6,1.1,7.6,4.4,6.1,9.8c-0.5,1.6-1.1,3.2-1.8,4.7c-3.1,6.3-6.8,12.3-11.4,17.6c-20.7,23.9-43.8,45.1-70.5,62.3
		C39.2,141.4,20.6,152.9,1.9,164c-2.1,1.3-2.3,2.2-1.2,4.3c5.3,10.2,10.5,20.5,15.6,30.9c0.9,1.8,2,2.3,3.9,2
		c10.2-1.4,20.4-2.6,30.6-3.9c43.2-5.4,86.4-10.9,129.6-16.1c34.7-4.2,69.4-8,104.1-12.1c41.6-4.9,83.2-9.6,124.7-14.9
		c44.4-5.7,89-10.1,133.7-14.1c7.9-0.7,7.8-0.7,9.6-8.5c0.5-2.4,0.2-3.3-2.6-3.1c-26.6,1.7-53.3,2.5-79.9,4.3
		c-25.9,1.8-51.7,3.3-77.6,5.2c-24.8,1.8-49.6,3.7-74.4,5.5c-24.3,1.8-48.6,3.6-72.8,5.4c-25.6,1.9-51.3,3.8-76.9,5.7
		c-23,1.7-46.1,3.3-69.1,4.9c-8,0.6-15.9,1-23.9,1.5c-1.2,0.1-2.9,0.4-3.5-0.8c-0.7-1.5,0.9-2.4,1.9-3.3c1.7-1.5,3.5-3,5.4-4.4
		c23.6-17.8,46.2-36.5,66.4-58.2c10.4-11.2,20.6-22.4,27.5-36.1c3.9-7.7,6.5-15.6,5.9-24.4C177.9,19,168.4,7.8,154,5.3
		c-6.7-1.2-13.5-1.6-20.4-1.2c-27.9,1.7-54.2,9.6-79.3,21.6c-1.1,0.5-2,1.1-2.5,2.2c-5.3,10.8-10.7,21.6-16,32.4
		C35.7,60.5,35.8,60.9,35.7,61.5z"/>
	<path d="M305.8,49.9C305.8,49.9,305.8,49.9,305.8,49.9c8-0.6,15.9-1.2,23.8-1.9c0.9-0.1,1.9-0.5,2.3,0.9c0.8,2.7-0.9,5.1-3.8,5.4
		c-15.6,1.2-31.2,2.4-46.8,3.6c-2.3,0.2-3,1.1-3.2,3.3c-0.5,6.2-1.2,12.5-1.9,18.7c-1.7,14.1-3.4,28.2-5.2,42.3
		c-0.2,1.6,0.1,2.3,1.9,2.2c6.6-0.6,13.2-1.1,19.8-1.5c1.5-0.1,2.3-0.6,2.5-2.2c0.5-4.4,1-8.7,1.5-13.1c0.7-6.2,1.4-12.5,2.2-18.7
		c0.2-1.4,0.4-2.7,2.3-2.8c3.7-0.2,7.3-0.7,11-0.8c3.8-0.1,6.5,1.9,7.5,5.4c0.8,3,1.3,6.1,1.8,9.2c1,6.1,1.8,12.2,2,18.4
		c0,1.5,0.6,2,2.1,1.9c6.9-0.6,13.8-1.1,20.7-1.6c1.8-0.1,2.6-0.9,2.5-2.8c-0.7-11.7-0.1-23.5-3.7-34.8c-0.3-0.9-0.4-1.9,0.5-2.6
		c4.4-3.6,6-8.6,7.6-13.8c2.4-7.6,2.3-15.5,3.4-23.2c0.6-4.2,0.7-8.6-0.4-12.8c-2.1-8.5-6.6-11.8-15.1-11.2
		c-18.5,1.4-37,2.8-55.6,4.1c-2.3,0.2-2.9,1.1-3.1,3.2c-0.8,8.1-1.7,16.2-2.9,24.3c-0.4,2.5,0.4,2.9,2.6,2.7
		C290.1,51.1,297.9,50.5,305.8,49.9z"/>
	<path d="M214.5,128.8C214.5,128.8,214.5,128.8,214.5,128.8c9.8-0.8,19.7-1.6,29.5-2.3c2.3-0.2,4.4-0.8,6.1-2.2
		c4.9-4,8.4-9,10.2-15.1c3.1-10.7,3.1-21.9,4.7-32.9c1.4-9.9,2.5-19.9,3.5-29.9c0.7-6.7,0.1-13.2-4.4-18.7c-1.9-2.3-4.1-4.1-7.4-3.8
		c-19.6,1.6-39.1,3.1-58.7,4.6c-2.4,0.2-3.7,1.2-4.1,3.5c-1.7,8-3.7,15.9-6.4,23.6c-1.1,3.1,0,3.4,2.7,3.2
		c8.1-0.7,16.1-1.2,24.2-1.8c8.9-0.7,17.8-1.4,26.7-2.1c1.7-0.1,2.6-0.1,2.3,2.3c-1.5,12.2-2.9,24.5-4.1,36.8
		c-0.2,2.5-1.1,3.4-3.6,3.5c-7.2,0.4-14.4,1-21.7,1.6c-3.9,0.3-3.9,0.3-3.5-3.5c1.1-9.9,2.3-19.7,3.5-29.6c0.3-2.1,0-3.1-2.5-2.8
		c-6.3,0.7-12.5,1.1-18.8,1.5c-1.8,0.1-2.5,0.7-2.7,2.6c-0.6,6.4-1.4,12.7-2.2,19c-1.7,13.9-3.3,27.8-5.1,41.7
		c-0.3,2.4,0.1,3.3,2.9,3.1C195.2,130.2,204.9,129.6,214.5,128.8z"/>
	<path d="M482.1,108.1c23.6-1.8,47.1-3.7,70.7-5.4c2.2-0.2,2.5-1.3,2.6-3c0.9-8.1,1.6-16.2,2.8-24.3c0.4-2.7-0.3-3-2.6-2.8
		c-14.8,1.2-29.7,2.3-44.5,3.5c-4.4,0.4-4.3,0.4-3.9-4c0.2-2.4,1.8-2.2,3.4-2.3c15.5-1.2,31-2.4,46.4-3.6c1.2-0.1,2.6,0.1,2.8-1.7
		c0.9-8.6,1.9-17.2,2.9-25.9c0.3-2.4-0.9-2.5-2.8-2.3c-23.3,1.8-46.6,3.7-70,5.4c-2.5,0.2-3.1,1.1-3.3,3.4
		c-1.2,10.8-2.6,21.6-3.8,32.4c-1.1,9.2-2.1,18.5-3.2,27.7C479.1,107.4,479.5,108.7,482.1,108.1z"/>
	<path d="M370,116.8C370,116.8,370,116.8,370,116.8c3.5-0.2,6.9-0.5,10.4-0.7c1.6-0.1,2.5-0.6,2.6-2.4c0.2-3.1,0.6-6.2,0.9-9.3
		c2-16.8,4.1-33.6,6.1-50.4c1.5-12.8,2.8-25.6,4.3-38.3c0.3-2.2-0.7-2.3-2.3-2.1c-6.5,0.5-13,1.1-19.4,1.5c-1.7,0.1-2.3,1-2.5,2.6
		c-1.2,11-2.4,22-3.7,33c-1.4,12-2.9,24.1-4.3,36.1c-1.1,9.4-2.2,18.9-3.3,28.3c-0.2,1.8,0,2.9,2.2,2.6
		C363.9,117.2,366.9,117,370,116.8z"/>
	<path d="M488,32.5c-0.9,3.2,0.4,3.3,2.5,3.1c22.8-1.8,45.6-3.6,68.4-5.3c4.8-0.4,4.8-0.5,5.3-5.3c0.8-7.2,1.7-14.3,2.6-21.5
		c0.4-3.4,0.3-3.7-3-3.4c-23.3,1.8-46.6,3.7-70,5.4c-2.1,0.2-3,1-3.2,3C489.7,16.7,488.8,24.9,488,32.5z"/>
	<path d="M416.7,110.4c0.8-1,1.1-1.2,1.2-1.5c5.6-16.9,11.1-33.7,16.6-50.6c0.5-1.7,0.9-3.4,0.6-5.3c-1.7-13.4-3.4-26.8-5.1-40.2
		c-0.2-1.7-0.8-2.4-2.6-2.2c-7,0.6-14,1.1-21,1.7c-1.6,0.1-2.2,0.9-2,2.5c1.8,14,3.5,28,5.3,42.1c1.7,13.1,3.3,26.2,5,39.2
		C415.3,100.5,416,105.1,416.7,110.4z"/>
	<path d="M445.3,56c0-0.1-0.1-0.5-0.3-0.7c-1.3-0.8-2.9-1.4-4.2-1c-2.7,1-0.7,4.6-2.8,6.2c-0.5,0.4-0.2,1.2,0.4,1.6
		c0.2,0.2,0.6,0.1,0.9,0.2C442.2,63.5,445.5,60,445.3,56z"/>
	<path d="M475.1,35.2c-0.7-2.2-2.7-2.6-4.2-3.2c-1.4-0.6-1.1,1.3-1.5,2.1c-0.5,1.2-0.9,2.5-1.2,3.8c-0.6,2.4,1.8,2.4,2.9,3.4
		c0.5,0.5,1.5,0.8,1.8-0.1C473.6,39.1,473.5,36.8,475.1,35.2z"/>
	<path d="M451.9,27.2c1.1,0.2,1.8-0.2,2.3-1.3c0.8-2,2.2-3.7,2.1-6c0-0.2-0.5-0.3-0.8-0.5c-2.8-1.5-4.7-0.6-5.2,2.6
		c-0.1,0.6-0.3,1.1-0.6,1.6C448.1,25.9,448.8,27.1,451.9,27.2z"/>
	<path d="M446.9,45c0.7,0.2,1.4,0.2,1.7-0.5c0.8-2,1.6-4.1,2.3-6.2c0.1-0.3-0.2-0.8-0.5-1c-2.3-1.8-4.9-0.7-5.5,2.2
		c-0.1,0.4-0.1,0.8-0.3,1.2C442.8,44.1,443.2,44.8,446.9,45z"/>
	<path d="M472.3,44.1c-0.6-2.2-2.6-2.4-4.1-3.1c-1.5-0.6-1.2,1.2-1.5,2c-0.5,1.3-0.8,2.6-1.2,3.9c-0.7,2.6,2,2.1,3,3.3
		c0.5,0.6,1.6,0.7,1.7-0.2C470.6,47.8,471.3,45.9,472.3,44.1z"/>
	<path d="M449.3,36.1c0.6,0.2,1.5,0.3,1.7-0.3c0.9-2.2,1.7-4.4,2.5-6.6c0.1-0.2-0.4-0.7-0.7-0.9c-2.4-1.4-4.7-0.1-5,2.7
		c0,0.5-0.2,0.7-0.4,1C445.6,35,446,35.7,449.3,36.1z"/>
	<path d="M430.5,94.4c-2.2-0.5-3.4,0.2-3.5,2c-0.1,2.1,1.8,1.5,3,1.9c1.3,0.4,2.2,0,2.5-1.4c0.3-1.3,0.9-2.6,1.3-3.8
		c0.3-1,1-2.4-0.7-2.4c-1.5,0-3.2-2-4.5,0.2C427.7,92.5,428.1,93.7,430.5,94.4z"/>
	<path d="M460.1,67.5c-1.3-0.1-1.4,0.8-1.6,1.4c-0.4,1.4-0.7,2.9-1.2,4.2c-0.4,1.1-0.5,2.1,0.7,2.6c1.1,0.5,2.1,2,3.3,1.4
		c1-0.4,1.8-1.7,0.5-3.1c-0.5-0.5,0.4-0.8,0.7-1.1c0.7-0.9,1.9-1.9,1.1-2.9C462.8,68.9,461.2,68.2,460.1,67.5z"/>
	<path d="M480.2,6.4c-1.8,0-4.5,4.1-3.7,6c0.5,1.2,4.2,2.9,4.5,2.1c0.9-2.1,1.8-4.2,2.1-6.4C483.3,6.7,481.7,6.4,480.2,6.4z"/>
	<path d="M455.9,18.3c-0.5,0-0.2,0.1,0.1,0c0.6-0.1,3.4-6.8,3-7.3c-0.3-0.3-0.9-0.5-1.4-0.5c-2.5-0.1-5.9-1.4-4.3,3.5
		c0,0.1-0.2,0.3-0.3,0.5C451.3,17.3,451.8,18.1,455.9,18.3z"/>
	<path d="M440.2,67.8c-1.4,0.5-2.3,0-3.2-0.1c-1.2-0.1-1.4,0.7-1.7,1.5c-0.2,0.7-0.5,1.3,0.3,1.9c2,1.4,4.4,0.6,5.3-1.7
		c0.4-1.1,0.8-2.1,1.2-3.2c0.5-1.1,0.7-2.2-0.8-2.3c-1.4-0.1-3.2-2-4.4,0.3C435.2,67.4,438.5,66.8,440.2,67.8z"/>
	<path d="M458.5,88.2c-0.9-1.5-2.6-2.2-4.2-2.8c-1.2-0.4-1.5,1.2-1.6,2.1c-0.1,1.3-0.3,2.6-1.1,3.7c-0.5,0.7-0.3,1.7,0.5,2.2
		c1.1,0.6,2.2,1.6,3.6,1.5c0.4-0.1,1.1-1.4,0.9-1.8c-0.9-1.5-0.5-2.3,1.1-3C458.1,90,458.2,89.1,458.5,88.2z"/>
	<path d="M452.8,99.5c1,0.1,2.2,0.8,2.5-0.9c0.2-0.9,0.7-1.9-0.5-2.4c-1.3-0.6-2.1-2-3.8-1.9c-0.2,0-0.4,0.4-0.5,0.7
		c-0.6,1.9-1.3,3.8-1.6,5.7c-0.4,2.4,2.2,2.1,3.3,3.2c0.5,0.5,1.1,0.5,1.5-0.3c0.8-1.4,0.7-2.6-0.7-3.5
		C452.9,100.1,452.9,99.9,452.8,99.5z"/>
	<path d="M437.3,76.8c-1.2,0.6-2,0.5-2.8,0.1c-1.3-0.7-1.6,0.1-2.1,1.2c-0.6,1.4,0.1,1.6,1,2c2.2,0.8,4,1.2,4.6-1.9
		c0.2-0.9,0.5-1.9,1.2-2.7c0.6-0.8,1.3-2.4-0.5-2.6c-1.5-0.2-3.6-2.2-4.7,0.8C432.8,76.7,436,75.6,437.3,76.8z"/>
	<path d="M464.7,53.4c1,0.5,1.8,0.9,2.5,1.4c0.6,0.4,1.2,0.7,1.5-0.1c0.4-0.9,1.3-2,0.3-2.8c-1.2-0.9-3.3-2.8-4.2-1.8
		c-1.4,1.6-1.8,4.1-2.2,6.4c-0.3,1.6,1.6,1.6,2.6,2.3c0.8,0.6,1.8,1.5,2.5-0.1c0.5-1.2,0.5-2.1-0.8-2.9
		C466.1,55.3,464.8,55.2,464.7,53.4z"/>
	<path d="M434.5,85.7c-1,0.8-2,0.1-2.9-0.1c-0.9-0.2-1.4,0.3-1.6,1.1c-0.2,0.7-0.8,1.6,0,1.9c1.5,0.6,3,1.6,4.7,0.5
		c0.8-0.5,2.5-6.6,2.1-6.9c-0.4-0.3-0.9-0.4-1.4-0.6c-0.7-0.2-1.5-0.1-2.1-0.4c-1.4-0.6-1.8,0-2.1,1.3c-0.3,1.2-0.3,2,1.2,2.3
		C433.1,85,434,84.6,434.5,85.7z"/>
	<path d="M428.9,103.7c-1.1-0.1-2-0.2-2.9-0.2c-1.4-0.1-1.7,1.1-2.1,2c-0.3,0.8,0.4,1.5,1.1,1.5c1.4,0,3.1,0.8,4.1-0.5
		c1.3-1.8,1.9-3.9,2.3-6.1c0-0.1-0.4-0.3-0.7-0.5c-1.3-0.9-2.8-0.9-4.2-0.4c-0.9,0.3-1.2,1.4-1,2.1c0.4,1.7,2.1,0.8,3.2,1.4
		C428.7,103,428.7,103.1,428.9,103.7z"/>
	<path d="M445.8,50.2c-1.2,0.5-2.1-0.2-3-0.2c-1.9,0-2.4,1.5-1.8,2.8c0.6,1.3,2.4,0.7,3.7,1.2c1,0.4,1.3-0.7,1.6-1.5
		c0.4-1.1,0.9-2.1,1.2-3.2c0.2-1,1.6-2.2,0.1-3c-1.5-0.8-3.2-0.9-4.7,0c-0.5,0.3-1.1,1.2-1.1,1.7c0,0.7,0.9,1,1.7,1.1
		C444.1,49.4,445.2,48.8,445.8,50.2z"/>
	<path d="M453,66.9c-1.6,4.4-0.7,8.9-0.7,13.3c0,0.6,0,1.4,0.8,1.5c0.9,0.1,0.8-0.7,1-1.3c2-4.5,0-8.9-0.5-13.4
		C453.6,67,453.4,67,453,66.9z"/>
	<path d="M447.1,100.6c3.9-5.9,1.3-10.9,0.6-15.9C445.9,89.7,446.5,94.8,447.1,100.6z"/>
	<path d="M436.8,88.9c2.6-3.4,6.3-6.2,7.1-10.8C440.2,80.8,436.8,83.6,436.8,88.9z"/>
	<path d="M450.2,90.9c0.7-2.6,3.2-5.1,2-7.4c-1.3-2.5-0.1-5.3-1.9-8.2C448.3,80.9,449.6,85.9,450.2,90.9z"/>
	<path d="M472.7,6.9c-1.1,0-1.3,0.7-1.3,1.5c0,3.3,0.1,6.6,0.2,9.9c0,0.5,0,1.2,0.7,1.2c0.9,0.1,0.8-0.7,1-1.2
		c0.4-1.5,0.4-3.6,1.4-4.3c2.4-1.9-0.5-2.1-0.8-2.9c-0.6-1.4,0.3-3-0.9-4.1C472.8,6.9,472.7,6.9,472.7,6.9z"/>
	<path d="M425.7,108c-2.4-0.8-2.9,0.9-2.9,2.1c0.1,2.6,3.3,0.6,4.3,2.6c0.2,0.3,1.4-1.7,1.5-2.6C429,107.3,426.5,108.6,425.7,108z"
		/>
	<path d="M461.2,79.6c-0.4-2.3-2.7-2.3-4-3c-1.5-0.7-1.4,1.4-1.6,2.3c-0.5,2.2,1.8,1.1,2.7,2.1C460.4,83.3,460.4,80.5,461.2,79.6z"
		/>
	<path d="M455.7,79.9c-2,2.9-1.6,4.6,1.3,5.7c0.9,0.3,1.6,1.1,2.3-0.2c0.6-1.1,0.7-1.9-0.5-2.7C457.7,82,456.4,81.5,455.7,79.9z"/>
	<path d="M475.4,11.1c0.6-1.5,1.4-2.7,0.6-4.1c-0.2-0.4-1.2-0.3-1.4,0.1C474,8.4,473.9,9.7,475.4,11.1z"/>
	<path class="st1" d="M35.7,61.5c0-0.7,0-1,0.1-1.2c5.3-10.8,10.7-21.6,16-32.4c0.6-1.1,1.5-1.7,2.5-2.2
		c25.1-12,51.4-19.9,79.3-21.6c6.8-0.4,13.7,0,20.4,1.2c14.4,2.5,23.8,13.7,24.7,28.4c0.5,8.8-2,16.7-5.9,24.4
		c-6.9,13.7-17.2,25-27.5,36.1c-20.1,21.7-42.8,40.5-66.4,58.2c-1.8,1.4-3.6,2.8-5.4,4.4c-1,0.9-2.5,1.8-1.9,3.3
		c0.6,1.3,2.2,0.9,3.5,0.8c8-0.5,15.9-0.9,23.9-1.5c23-1.6,46.1-3.2,69.1-4.9c25.6-1.9,51.3-3.8,76.9-5.7
		c24.3-1.8,48.6-3.6,72.8-5.4c24.8-1.8,49.6-3.7,74.4-5.5c25.9-1.9,51.7-3.5,77.6-5.2c26.6-1.8,53.2-2.7,79.9-4.3
		c2.8-0.2,3.1,0.7,2.6,3.1c-1.8,7.8-1.7,7.8-9.6,8.5c-44.6,4-89.2,8.4-133.7,14.1c-41.5,5.3-83.1,10-124.7,14.9
		c-34.7,4.1-69.4,7.9-104.1,12.1c-43.2,5.2-86.4,10.7-129.6,16.1c-10.2,1.3-20.4,2.5-30.6,3.9c-2,0.3-3-0.2-3.9-2
		C11.1,188.8,6,178.5,0.7,168.3c-1.1-2.1-0.9-3.1,1.2-4.3c18.8-11.1,37.3-22.5,55.7-34.3c26.7-17.1,49.8-38.4,70.5-62.3
		c4.6-5.3,8.3-11.3,11.4-17.6c0.7-1.5,1.4-3.1,1.8-4.7c1.6-5.4-0.5-8.7-6.1-9.8c-3.8-0.8-7.5-0.5-11.3,0.1
		C101.1,39.2,79,45.9,57.4,53.8C50.2,56.4,43.1,58.9,35.7,61.5z"/>
	<path d="M305.8,49.9c-7.8,0.6-15.7,1.2-23.5,1.9c-2.2,0.2-2.9-0.2-2.6-2.7c1.2-8.1,2-16.2,2.9-24.3c0.2-2.1,0.8-3,3.1-3.2
		c18.5-1.3,37-2.7,55.6-4.1c8.6-0.6,13,2.7,15.1,11.2c1.1,4.2,1,8.5,0.4,12.8c-1.2,7.7-1.1,15.7-3.4,23.2
		c-1.6,5.1-3.2,10.2-7.6,13.8c-0.8,0.7-0.8,1.7-0.5,2.6c3.6,11.4,3,23.2,3.7,34.8c0.1,1.9-0.7,2.7-2.5,2.8c-6.9,0.5-13.8,1-20.7,1.6
		c-1.5,0.1-2.1-0.4-2.1-1.9c-0.2-6.2-1-12.3-2-18.4c-0.5-3.1-1-6.2-1.8-9.2c-1-3.6-3.7-5.5-7.5-5.4c-3.7,0.1-7.3,0.6-11,0.8
		c-1.9,0.1-2.1,1.3-2.3,2.8c-0.7,6.2-1.4,12.5-2.2,18.7c-0.5,4.4-1,8.7-1.5,13.1c-0.2,1.6-1,2.1-2.5,2.2c-6.6,0.4-13.2,0.9-19.8,1.5
		c-1.8,0.2-2.1-0.5-1.9-2.2c1.8-14.1,3.5-28.2,5.2-42.3c0.7-6.2,1.4-12.5,1.9-18.7c0.2-2.2,0.9-3.1,3.2-3.3
		c15.6-1.1,31.2-2.4,46.8-3.6c2.8-0.2,4.5-2.7,3.8-5.4c-0.4-1.4-1.4-0.9-2.3-0.9C321.7,48.6,313.7,49.3,305.8,49.9
		C305.8,49.9,305.8,49.9,305.8,49.9z"/>
	<path d="M214.5,128.8c-9.6,0.7-19.3,1.4-28.9,2.3c-2.8,0.3-3.2-0.6-2.9-3.1c1.8-13.9,3.4-27.8,5.1-41.7c0.8-6.3,1.6-12.7,2.2-19
		c0.2-1.9,0.9-2.5,2.7-2.6c6.3-0.4,12.6-0.9,18.8-1.5c2.5-0.3,2.8,0.7,2.5,2.8c-1.2,9.9-2.4,19.7-3.5,29.6c-0.4,3.8-0.4,3.8,3.5,3.5
		c7.2-0.6,14.4-1.2,21.7-1.6c2.5-0.1,3.3-1,3.6-3.5c1.2-12.3,2.6-24.5,4.1-36.8c0.3-2.4-0.6-2.4-2.3-2.3c-8.9,0.7-17.8,1.4-26.7,2.1
		c-8.1,0.6-16.1,1.1-24.2,1.8c-2.7,0.2-3.8,0-2.7-3.2c2.7-7.7,4.7-15.6,6.4-23.6c0.5-2.3,1.8-3.3,4.1-3.5c19.6-1.5,39.1-3,58.7-4.6
		c3.3-0.3,5.5,1.5,7.4,3.8c4.5,5.5,5.1,12,4.4,18.7c-1,10-2.1,20-3.5,29.9c-1.6,11-1.6,22.1-4.7,32.9c-1.7,6.1-5.3,11.1-10.2,15.1
		c-1.7,1.4-3.8,2-6.1,2.2C234.2,127.2,224.3,128,214.5,128.8C214.5,128.8,214.5,128.8,214.5,128.8z"/>
	<path d="M482.1,108.1c-2.6,0.6-2.9-0.7-2.7-3c1.1-9.2,2.1-18.5,3.2-27.7c1.3-10.8,2.7-21.6,3.8-32.4c0.2-2.3,0.9-3.2,3.3-3.4
		c23.3-1.7,46.7-3.5,70-5.4c1.9-0.1,3.1-0.1,2.8,2.3c-1,8.6-1.9,17.2-2.9,25.9c-0.2,1.9-1.6,1.6-2.8,1.7c-15.5,1.2-31,2.4-46.4,3.6
		c-1.5,0.1-3.2-0.1-3.4,2.3c-0.4,4.3-0.5,4.3,3.9,4c14.8-1.2,29.7-2.3,44.5-3.5c2.3-0.2,3.1,0.1,2.6,2.8c-1.2,8.1-2,16.2-2.8,24.3
		c-0.2,1.7-0.4,2.9-2.6,3C529.2,104.4,505.7,106.3,482.1,108.1z"/>
	<path d="M370,116.8c-3,0.3-6.1,0.5-9.1,0.8c-2.2,0.2-2.4-0.8-2.2-2.6c1.2-9.4,2.2-18.9,3.3-28.3c1.4-12,2.9-24.1,4.3-36.1
		c1.3-11,2.5-22,3.7-33c0.2-1.6,0.8-2.5,2.5-2.6c6.5-0.4,13-1,19.4-1.5c1.6-0.1,2.5-0.1,2.3,2.1c-1.5,12.8-2.8,25.6-4.3,38.3
		c-2,16.8-4.1,33.6-6.1,50.4c-0.4,3.1-0.7,6.2-0.9,9.3c-0.1,1.8-1,2.3-2.6,2.4C376.9,116.2,373.4,116.5,370,116.8
		C370,116.8,370,116.8,370,116.8z"/>
	<path d="M488,32.5c0.8-7.6,1.8-15.8,2.6-24c0.2-2,1.1-2.8,3.2-3c23.3-1.8,46.6-3.6,70-5.4c3.3-0.3,3.5,0,3,3.4
		c-0.9,7.1-1.8,14.3-2.6,21.5c-0.5,4.9-0.5,5-5.3,5.3c-22.8,1.8-45.6,3.5-68.4,5.3C488.4,35.8,487.1,35.7,488,32.5z"/>
	<path d="M416.7,110.4c-0.7-5.3-1.3-9.8-1.9-14.4c-1.7-13.1-3.4-26.2-5-39.2c-1.8-14-3.5-28-5.3-42.1c-0.2-1.6,0.3-2.3,2-2.5
		c7-0.5,14-1.1,21-1.7c1.7-0.1,2.4,0.5,2.6,2.2c1.6,13.4,3.3,26.8,5.1,40.2c0.2,1.8-0.1,3.6-0.6,5.3c-5.5,16.9-11.1,33.7-16.6,50.6
		C417.8,109.2,417.5,109.4,416.7,110.4z"/>
	<path d="M434.2,111.6c0.5-2.1,2.5-3.5,2.4-6c-1.2,1.8-2.6,3.3-3.8,5c-0.8,1.1-1.5,2.3-3.1,2.3c-0.2,0-0.5-0.5-0.5-0.7
		c0.4-1.5,0.4-3.1,1.9-4c0.7-0.5,2.1-0.5,1.5-2l-0.1,0.1c2.4-0.4,2.9-2.8,4.3-4.2c1.4-1.3,2.3-3.2,3.1-5c0.2-0.6,3.1-2.3-0.3-2.8
		c-0.3-0.1-0.1-1.3,0.5-2.1c1.3-1.4,2.6-3,2.6-5.5c-2.9,4-5.6,7.7-8.3,11.3c-0.3-0.2-0.6-0.4-0.9-0.6c1.5-2.6,1.5-5.6,4.4-8
		c3.4-2.7,6.1-6.6,8-10.7c0.3-0.8,1.6-1.7-0.5-2c-0.7-0.1-0.1-1.3,0.4-2.1c0.8-1.2,2.1-2.3,1.9-4.5c-3,3.4-5,7.1-8.3,9.8
		c1.2-2.8,1.2-5.8,4.1-8.2c3.6-2.9,6.7-6.9,7.7-11.8c-2.7,4-5.6,7.8-9,11.2c1.1-2.8,0.9-5.8,3.7-8c3.6-2.8,6.1-6.7,8.1-10.9
		c0.2-0.3,0.1-0.8-0.7-1.1c-2.1,4.2-5.1,7.8-8.4,11.2c1.1-2.7,0.7-5.7,3.6-8c3.2-2.5,5.8-6,7.7-9.8c-0.2-0.2-0.5-0.3-0.7-0.5
		c-2.4,3.2-4.9,6.3-7.3,9.5c-0.3-0.2-0.6-0.4-0.9-0.5c1.5-2.5,1.3-5.3,4.1-7.6c4-3.3,7.1-7.8,8.8-13c-3.2,4.1-6.1,8.5-9.8,12.2
		c1.1-2.9,0.9-6,4-8.3c3-2.2,5.3-5.6,7.1-9.1c0.3-0.5,0.3-1.1-0.3-1.8c-2.2,3.7-4.9,7.1-8,10.1c1.2-2.7,0.9-5.7,3.8-8
		c3.9-3.1,6.6-7.6,8.8-12.2c0.4-0.9-0.1-1.1-0.9-1c-0.2-0.2-0.3-0.3-0.5-0.5c0.6-2.3,2.5-3.7,3.4-5.9c0.4-0.9,1.4-1,2.2-0.6
		c0.6,0.4,1.3,1.1,0.9,2c-0.2,0.6-0.4,1.4-0.8,1.6c-3,1.6-1.6,4.7-2.6,6.9c-1.6,3.6-1.7,7.8-3.2,11c-1.3,2.7-2.2,4.7-1.4,7.5
		c0.1,0.3-0.1,1-0.3,1.2c-3.8,2.3-2.2,6.9-3.9,9.3c-2.2,3.1-0.4,7-2.3,8.6c-2.8,2.4-1.8,5.3-2.7,7.9c-0.1,0.3-0.1,0.8-0.3,0.9
		c-3.2,1.2-2.1,3.9-2.3,6.3c-0.2,1.6,0.8,3.9-2,4.4c-0.2,0-0.3,0.9-0.4,1.5c-0.4,2.7,0.7,5.6-2.4,7.9c-1.1,0.8-0.6,4.1-1.5,6.1
		c-1.4,3.1-1.8,6.4-2.3,9.7c-0.2,1.4-3,2.5-1.9,4.9c1.4-0.3,0.1-2.1,1.5-2.4c1.7,1.4,0.1,3.6,1.3,5.7c0.7-5.1-0.4-9.9,1.1-14.5
		c1.5,0.5,1.1,1.7,1.2,2.6c0.1,1-0.3,2.3,0.2,3.1c2.4,3.9,0.1,6.9-1.7,9.9c-0.7,1.1,0.1,1.8,0.2,2.6c0,0.8,0.7,0.6,1.2,0.4
		c1.1-0.5,0.4-1.4,0.5-2.1c0.3-1.7,0.8-3.5,1.3-5.1c0.3-0.8,0.3-2.7,1.8-1.7c1.2,0.9,4.2,0.6,3.3,3.5c-0.4,1.5-1.8,2.5-1.2,4.5
		c0.3,1-0.8,1.7-2.2,1.2c-2-0.7-4-1.5-6,0.3c-0.8,0.7-1.8,0.1-1.9-1.2c-0.1-1.7-0.3-3.4-0.7-5.2c0.4,2.8-2.6,3.5-3.1,5.9
		c-0.4,1.8-1.7-0.7-2.8-0.3C434.5,111.9,434.4,111.8,434.2,111.6z"/>
	<path d="M474,22.4c-0.8-2.8,1.1-5.2,1.5-7.8c0-0.2,0.3-0.5,0.6-0.6c1-0.3,4.7,2.8,4.3,3.7c-0.8,1.7-1,3.8-1.8,5.2
		c-1.5,2.6-1.4,5.4-2.2,8.1c-0.5,1.6-0.8,2.3-2.8,1.4c-1.7-0.8-2.7-2.3-4.2-3.2l0.1,0.1c-0.8-5.2-1.4-10.4,0.4-15.6
		c0.4,4.5,3.5,8.7,0.3,13.8c3.1-0.8,1.5-3.9,3.6-4.6c0,0.3,0.2,0.5,0.5,0.3C474.1,23,474,22.6,474,22.4z"/>
	<path d="M457.9,64.2c-0.1-4.9-1.1-9.9,0.5-14.8c1.3,0.1,1.3,1,1.2,1.6c-0.5,2.7,0.6,5,1.8,7.1c0.5,0.9,2.1,1.2,3.3,1.6
		c1.7,0.7,2.7,1.6,1.5,3.5c-1.2,2.1-2-0.3-3-0.3c-0.4,0-0.7-0.5-1.2-0.2c0.3,2,4.8,1.4,2.9,4.6c-0.3,0.6-0.8,1.3-1.7,0.7
		c-1.8-1.1-4.6-1.6-2.9-4.8C459.1,63.1,459,65.2,457.9,64.2L457.9,64.2z"/>
	<path d="M445.3,56c0.2,4-3.1,7.4-6,6.4c-0.3-0.1-0.7-0.1-0.9-0.2c-0.6-0.4-0.9-1.2-0.4-1.6c2.1-1.6,0.1-5.2,2.8-6.2
		c1.2-0.4,2.9,0.2,4.2,1C445.2,55.5,445.3,55.9,445.3,56z"/>
	<path d="M475.1,35.2c-1.6,1.6-1.5,3.9-2.2,6c-0.3,0.9-1.3,0.6-1.8,0.1c-1.1-1-3.5-1-2.9-3.4c0.3-1.3,0.7-2.6,1.2-3.8
		c0.4-0.8,0.1-2.7,1.5-2.1C472.4,32.6,474.4,33,475.1,35.2z"/>
	<path d="M451.9,27.2c-3-0.1-3.7-1.3-2.2-3.6c0.4-0.6,0.5-1,0.6-1.6c0.5-3.1,2.3-4,5.2-2.6c0.3,0.1,0.8,0.3,0.8,0.5
		c0.1,2.3-1.3,4-2.1,6C453.7,27,453,27.4,451.9,27.2z"/>
	<path d="M446.9,45c-3.7-0.2-4-0.8-2.4-4.2c0.2-0.4,0.2-0.8,0.3-1.2c0.6-2.9,3.2-4,5.5-2.2c0.3,0.2,0.6,0.7,0.5,1
		c-0.7,2.1-1.4,4.1-2.3,6.2C448.3,45.2,447.5,45.1,446.9,45z"/>
	<path d="M472.3,44.1c-1,1.8-1.7,3.8-2,5.9c-0.1,0.9-1.2,0.8-1.7,0.2c-1-1.1-3.7-0.7-3-3.3c0.3-1.3,0.7-2.6,1.2-3.9
		c0.3-0.8,0-2.7,1.5-2C469.7,41.6,471.7,41.9,472.3,44.1z"/>
	<path d="M449.3,36.1c-3.3-0.4-3.7-1.1-1.9-4c0.2-0.3,0.4-0.6,0.4-1c0.3-2.8,2.6-4.1,5-2.7c0.3,0.2,0.8,0.7,0.7,0.9
		c-0.8,2.2-1.6,4.5-2.5,6.6C450.8,36.4,449.9,36.4,449.3,36.1z"/>
	<path d="M430.5,94.4c-2.4-0.7-2.8-1.9-1.8-3.5c1.3-2.2,3-0.2,4.5-0.2c1.7,0,1,1.4,0.7,2.4c-0.4,1.3-1,2.5-1.3,3.8
		c-0.4,1.5-1.2,1.8-2.5,1.4c-1.2-0.4-3.1,0.2-3-1.9C427.1,94.7,428.3,94,430.5,94.4z"/>
	<path d="M460.1,67.5c1.1,0.7,2.6,1.4,3.6,2.6c0.8,1-0.4,2-1.1,2.9c-0.3,0.3-1.1,0.6-0.7,1.1c1.3,1.4,0.4,2.6-0.5,3.1
		c-1.2,0.5-2.1-1-3.3-1.4c-1.2-0.5-1.2-1.5-0.7-2.6c0.5-1.4,0.7-2.8,1.2-4.2C458.7,68.2,458.9,67.4,460.1,67.5z"/>
	<path d="M480.2,6.4c1.6-0.1,3.2,0.3,2.9,1.8c-0.3,2.2-1.2,4.3-2.1,6.4c-0.3,0.8-4.1-1-4.5-2.1C475.7,10.5,478.4,6.4,480.2,6.4z"/>
	<path d="M455.9,18.3c-4.2-0.2-4.6-0.9-2.9-3.8c0.1-0.2,0.3-0.4,0.3-0.5c-1.6-4.9,1.8-3.6,4.3-3.5c0.5,0,1.1,0.2,1.4,0.5
		c0.4,0.5-2.3,7.1-3,7.3C455.8,18.3,455.4,18.3,455.9,18.3z"/>
	<path d="M440.2,67.8c-1.7-1-5-0.4-3.2-3.7c1.2-2.2,2.9-0.4,4.4-0.3c1.5,0.1,1.3,1.2,0.8,2.3c-0.5,1-0.8,2.1-1.2,3.2
		c-0.9,2.3-3.3,3.1-5.3,1.7c-0.8-0.6-0.6-1.2-0.3-1.9c0.3-0.8,0.5-1.6,1.7-1.5C437.9,67.8,438.8,68.4,440.2,67.8z"/>
	<path d="M458.5,88.2c-0.3,0.8-0.4,1.8-0.8,1.9c-1.6,0.7-1.9,1.5-1.1,3c0.2,0.4-0.5,1.7-0.9,1.8c-1.4,0.2-2.4-0.9-3.6-1.5
		c-0.8-0.4-1-1.4-0.5-2.2c0.8-1.2,1-2.4,1.1-3.7c0.1-0.9,0.4-2.6,1.6-2.1C455.9,86,457.6,86.7,458.5,88.2z"/>
	<path d="M452.8,99.5c0.1,0.4,0.1,0.6,0.1,0.6c1.4,0.9,1.5,2.1,0.7,3.5c-0.4,0.7-1,0.8-1.5,0.3c-1-1.1-3.7-0.8-3.3-3.2
		c0.3-1.9,1.1-3.8,1.6-5.7c0.1-0.3,0.3-0.7,0.5-0.7c1.6-0.1,2.5,1.3,3.8,1.9c1.2,0.5,0.7,1.5,0.5,2.4
		C455,100.2,453.8,99.6,452.8,99.5z M451.8,98c-0.7,0.3-1,0.5-0.7,0.8c0.2,0.2,0.4,0.4,0.7,0.5c0.3,0.1,0.6,0,0.5-0.4
		C452.1,98.5,451.9,98.2,451.8,98z"/>
	<path d="M437.3,76.8c-1.3-1.2-4.4-0.1-3.3-3.1c1.1-3,3.2-1,4.7-0.8c1.9,0.2,1.2,1.9,0.5,2.6c-0.7,0.9-1,1.9-1.2,2.7
		c-0.6,3.1-2.4,2.8-4.6,1.9c-0.9-0.4-1.6-0.6-1-2c0.5-1.2,0.8-1.9,2.1-1.2C435.3,77.3,436.1,77.4,437.3,76.8z"/>
	<path d="M464.7,53.4c0.1,1.8,1.3,1.9,2.2,2.3c1.4,0.7,1.4,1.7,0.8,2.9c-0.7,1.6-1.7,0.7-2.5,0.1c-1-0.6-2.9-0.6-2.6-2.3
		c0.4-2.2,0.8-4.8,2.2-6.4c0.9-1,2.9,0.8,4.2,1.8c1,0.8,0.1,1.9-0.3,2.8c-0.4,0.8-1,0.5-1.5,0.1C466.5,54.4,465.7,54,464.7,53.4z"/>
	<path d="M434.5,85.7c-0.4-1.1-1.4-0.7-2.1-0.8c-1.4-0.3-1.5-1.1-1.2-2.3c0.3-1.2,0.7-1.9,2.1-1.3c0.6,0.3,1.4,0.2,2.1,0.4
		c0.5,0.1,1,0.3,1.4,0.6c0.4,0.3-1.3,6.4-2.1,6.9c-1.6,1.1-3.2,0.1-4.7-0.5c-0.9-0.4-0.2-1.3,0-1.9c0.2-0.8,0.7-1.3,1.6-1.1
		C432.5,85.7,433.4,86.5,434.5,85.7z"/>
	<path d="M428.9,103.7c-0.2-0.6-0.1-0.7-0.2-0.7c-1-0.6-2.8,0.3-3.2-1.4c-0.2-0.7,0-1.8,1-2.1c1.4-0.4,2.9-0.5,4.2,0.4
		c0.2,0.2,0.7,0.4,0.7,0.5c-0.4,2.2-1,4.3-2.3,6.1c-1,1.3-2.7,0.6-4.1,0.5c-0.8,0-1.5-0.7-1.1-1.5c0.4-0.9,0.7-2.1,2.1-2
		C426.9,103.5,427.8,103.6,428.9,103.7z"/>
	<path d="M445.8,50.2c-0.6-1.3-1.7-0.8-2.5-1c-0.7-0.2-1.6-0.5-1.7-1.1c0-0.6,0.5-1.4,1.1-1.7c1.5-0.9,3.3-0.8,4.7,0
		c1.5,0.8,0.2,2-0.1,3c-0.3,1.1-0.8,2.2-1.2,3.2c-0.3,0.8-0.6,1.9-1.6,1.5c-1.2-0.5-3.1,0.1-3.7-1.2c-0.5-1.3-0.1-2.7,1.8-2.8
		C443.7,50,444.6,50.7,445.8,50.2z"/>
	<path d="M465,14.1c-2,4.8-5.6,8.5-8.9,12.5c0.3-3.6,1.2-6.8,4.3-8.9l-0.1,0c1.1-0.5,1.7-1.4,1.9-2.6c0,0,0,0.1,0,0.1
		c0.8-0.5,1.5-1,2.3-1.6C464.7,13.8,464.9,14,465,14.1z"/>
	<path d="M469.3,29.1c-0.4,3-1.2,5.8-2.6,8.5c-0.9-5.2-1.3-10.3,0.1-15.8c1.7,1.4,0.9,3.1,1.1,4.5C468.1,27.4,467.5,28.9,469.3,29.1
		C469.4,29.1,469.3,29.1,469.3,29.1z"/>
	<path d="M463.4,46.5c0.4,3.1-1.1,5.9-2.1,8.8c-1-5.1-1.6-10.1-0.2-15.4c1.7,1,0.9,2.6,1.2,3.9c0.3,1-0.9,2.6,1.2,2.8L463.4,46.5z"
		/>
	<path d="M460.4,17.6c-1.2-0.2-2.1,0-1.6-2.1c0.9-3.6,3.5-5.6,5.8-8c0.5-0.5,1.1-0.7,1.7-0.2c0.5,0.5,0,1-0.3,1.3
		c-1.1,1.6-2.4,3.2-3.5,4.8c-0.3,0.5-1.5,0.9-0.3,1.7c0,0,0-0.1,0-0.1C460.7,15.3,460.1,16.2,460.4,17.6L460.4,17.6z"/>
	<path d="M453,66.9c0.4,0.1,0.6,0.1,0.6,0.2c0.5,4.4,2.5,8.8,0.5,13.4c-0.2,0.5-0.2,1.4-1,1.3c-0.8-0.1-0.8-0.9-0.8-1.5
		C452.2,75.8,451.4,71.3,453,66.9z"/>
	<path d="M457.8,64.1c0.7,3.2-1.1,6-1.8,9c-1.4-5.1-1.7-10.2-0.4-15.5c1.8,0.9,0.9,2.5,1.2,3.6C457.1,62.3,456.1,63.8,457.8,64.1
		C457.9,64.2,457.8,64.1,457.8,64.1z"/>
	<path d="M447.1,100.6c-0.6-5.9-1.2-10.9,0.6-15.9C448.4,89.7,451,94.7,447.1,100.6z"/>
	<path d="M432.7,106.3c-0.5,0.2-1.1,0.6-1.4,0.4c-0.9-0.4-0.1-1-0.1-1.5c0.3-4.5,4.7-6.4,6.6-9.9c0.2-0.4,0.7-0.4,1.1-0.2
		c0.5,0.2,0.3,0.7,0.2,1.1c-0.3,1.5-1.2,2.6-2.1,3.8C435.5,102.1,433.5,103.8,432.7,106.3C432.6,106.3,432.7,106.3,432.7,106.3z"/>
	<path d="M463.5,46.6c0-5.1-1.7-10.2,0.6-15.5c1.1,0.9,0.9,2,0.9,3c0,1.5,0.1,2.8,0.9,4.2c1,1.8-0.8,7.3-2.5,8.2
		C463.4,46.5,463.5,46.6,463.5,46.6z"/>
	<path d="M436.8,88.9c-0.1-5.2,3.3-8.1,7.1-10.8C443.1,82.7,439.4,85.4,436.8,88.9z"/>
	<path d="M450.2,90.9c-0.6-5-2-9.9,0-15.6c1.9,2.9,0.6,5.7,1.9,8.2C453.4,85.8,450.9,88.3,450.2,90.9z"/>
	<path d="M472.7,6.9c0,0,0.1,0,0.2,0.1c1.2,1.1,0.3,2.7,0.9,4.1c0.3,0.8,3.2,1,0.8,2.9c-1,0.8-0.9,2.9-1.4,4.3c-0.2,0.5,0,1.4-1,1.2
		c-0.7-0.1-0.6-0.7-0.7-1.2c-0.1-3.3-0.2-6.6-0.2-9.9C471.4,7.7,471.6,6.9,472.7,6.9z"/>
	<path d="M425.7,108c0.8,0.6,3.3-0.7,2.9,2c-0.1,1-1.3,2.9-1.5,2.6c-1-1.9-4.2,0-4.3-2.6C422.8,108.9,423.3,107.2,425.7,108z"/>
	<path d="M461.2,79.6c-0.8,0.9-0.8,3.7-2.9,1.4c-0.9-0.9-3.2,0.1-2.7-2.1c0.2-0.9,0.1-3,1.6-2.3C458.5,77.3,460.8,77.3,461.2,79.6z"
		/>
	<path d="M455.7,79.9c0.6,1.6,1.9,2.1,3.1,2.8c1.2,0.7,1.1,1.6,0.5,2.7c-0.7,1.3-1.4,0.6-2.3,0.2C454.1,84.5,453.7,82.8,455.7,79.9z
		"/>
	<path d="M475.4,11.1c-1.5-1.3-1.4-2.7-0.7-4c0.2-0.4,1.2-0.5,1.4-0.1C476.8,8.3,476,9.6,475.4,11.1z"/>
	<path d="M434.6,112.1c-0.3,0.6-0.8,1.1-1.3,0.5c-0.3-0.4,0.5-0.7,0.9-0.9C434.4,111.8,434.5,111.9,434.6,112.1z"/>
	<path d="M474,22.4c0,0.2,0.2,0.6,0.1,0.7c-0.3,0.2-0.4,0-0.5-0.3C473.7,22.6,473.8,22.5,474,22.4z"/>
	<path d="M451.8,98c0.1,0.2,0.3,0.5,0.4,0.9c0.1,0.4-0.2,0.5-0.5,0.4c-0.3-0.1-0.5-0.3-0.7-0.5C450.8,98.5,451.1,98.3,451.8,98z"/>
	<path d="M460.3,17.7c-0.2-1.5,0.3-2.4,1.9-2.6C462,16.3,461.4,17.2,460.3,17.7z"/>
</g>
</svg>
