<svg width="30" height="30" viewBox="0 0 30 30" fill="none" xmlns="http://www.w3.org/2000/svg">
<path d="M4.39453 29.4258H25.6055C28.0286 29.4258 30 27.4544 30 25.0312V4.96875C30 2.54558 28.0286 0.574219 25.6055 0.574219H4.39453C1.97136 0.574219 0 2.54558 0 4.96875V25.0312C0 27.4544 1.97136 29.4258 4.39453 29.4258ZM1.75781 4.96875C1.75781 3.51489 2.94067 2.33203 4.39453 2.33203H25.6055C27.0593 2.33203 28.2422 3.51489 28.2422 4.96875V25.0312C28.2422 26.4851 27.0593 27.668 25.6055 27.668H4.39453C2.94067 27.668 1.75781 26.4851 1.75781 25.0312V4.96875Z" fill="#CD1C27"/>
<path d="M10.6055 9.11133V21.0585L21.1816 14.987L10.6055 9.11133ZM12.3633 12.0987L17.6074 15.0121L12.3633 18.0226V12.0987Z" fill="#CD1C27"/>
</svg>
